<svg width="30" height="22" viewBox="0 0 30 22" fill="none" xmlns="http://www.w3.org/2000/svg">
<path d="M28.75 12.0835H1.25C0.559998 12.0835 0 11.5235 0 10.8335C0 10.1435 0.559998 9.5835 1.25 9.5835H28.75C29.44 9.5835 30 10.1435 30 10.8335C30 11.5235 29.44 12.0835 28.75 12.0835Z" fill="#474747"/>
<path d="M28.75 2.5H1.25C0.559998 2.5 0 1.94 0 1.25C0 0.559998 0.559998 0 1.25 0H28.75C29.44 0 30 0.559998 30 1.25C30 1.94 29.44 2.5 28.75 2.5Z" fill="#474747"/>
<path d="M28.75 21.6665H1.25C0.559998 21.6665 0 21.1065 0 20.4165C0 19.7265 0.559998 19.1665 1.25 19.1665H28.75C29.44 19.1665 30 19.7265 30 20.4165C30 21.1065 29.44 21.6665 28.75 21.6665Z" fill="#474747"/>
</svg>
