<svg width="42" height="42" viewBox="0 0 42 42" fill="none" xmlns="http://www.w3.org/2000/svg">
<circle cx="21" cy="21" r="20" stroke="#575CDD" stroke-width="1.5" stroke-linecap="round"/>
<path d="M21.1821 21.6127C23.0995 21.6166 24.6998 20.0173 24.6904 18.1102C24.6805 16.1241 23.1336 14.5796 21.1677 14.5767C19.1821 14.5737 17.6371 16.2086 17.6663 18.0875C17.6332 19.9936 19.2117 21.6087 21.1821 21.6127ZM21.1821 15.8029C22.4404 15.8074 23.4548 16.8271 23.4548 18.0865C23.4548 19.3637 22.4385 20.381 21.1648 20.379C19.9168 20.377 18.8733 19.337 18.8723 18.0939C18.8708 16.8439 19.9247 15.7985 21.1821 15.8029Z" fill="#575CDD"/>
<path d="M33.7269 16.6708C33.4972 16.1327 33.1173 15.699 32.4849 15.5329C31.7304 15.3348 30.8722 15.5883 30.4557 16.2548C29.9938 16.9934 29.555 17.7488 29.1425 18.5161C28.811 19.1332 28.4216 19.6752 27.7823 20.0062C27.3485 20.2305 26.9231 20.4716 26.4982 20.7118C25.8174 21.0961 25.149 21.5067 24.3995 21.7503C24.1406 21.8343 23.9533 21.979 23.7809 22.192C23.2008 22.9089 22.4331 23.3308 21.52 23.4074C20.4015 23.5008 19.445 23.1109 18.7182 22.2419C18.4716 21.9474 18.2212 21.7033 17.8447 21.5754C17.2646 21.3783 16.7553 21.028 16.2182 20.7389C15.7661 20.4958 15.3244 20.2345 14.8758 19.985C14.2202 19.6204 13.7963 19.0487 13.4742 18.3941C13.4465 18.3373 13.4168 18.2898 13.3833 18.2513C13.3729 18.239 13.363 18.2261 13.3551 18.2123L12.9643 17.5216C12.7019 17.0354 12.4791 16.5532 12.1446 16.1456C11.531 15.3976 10.5251 15.24 9.71036 15.7459C8.94901 16.2192 8.59427 17.232 8.98507 18.1085C9.18418 18.5552 9.42331 18.984 9.64663 19.4198L9.68912 19.5038C9.69455 19.5151 9.69999 19.5265 9.70592 19.5369L10.2711 20.6579C10.2771 20.6693 10.282 20.6811 10.2869 20.6935C10.4554 21.1362 10.7469 21.5008 11.0236 21.8694C11.3561 22.3125 11.7484 22.7078 12.1575 23.0843C12.5764 23.4696 13.0107 23.8348 13.5043 24.1233C13.8768 24.3412 14.2612 24.5423 14.6159 24.7858C15.0191 25.063 15.3146 25.4454 15.5922 25.851C16.0744 26.5556 16.3857 27.3085 16.3882 28.1702C16.3926 29.7838 16.3911 31.3974 16.3941 33.0111C16.3941 33.0348 16.3931 33.058 16.3916 33.0807C16.3862 33.1489 16.3956 33.2176 16.4223 33.2808C16.4252 33.2877 16.4282 33.2942 16.4311 33.3011C16.4954 33.4429 16.6392 33.5293 16.7948 33.5377C16.8506 33.5407 16.9074 33.5481 16.9608 33.5476C17.0443 33.5461 17.1194 33.5496 17.193 33.5086C17.4257 33.3796 17.5275 33.0881 17.5655 32.8411C17.608 32.5674 17.5902 32.2897 17.5897 32.0135C17.5897 31.9819 17.5947 31.9537 17.6031 31.9286C17.6159 31.892 17.6253 31.8544 17.6253 31.8159C17.6248 30.7319 17.6248 29.6479 17.6263 28.5645C17.6278 27.6944 17.5018 26.856 17.1391 26.0516C16.6293 24.9197 15.8531 24.0353 14.775 23.4291C13.6466 22.7947 12.6767 21.9944 11.8986 20.9489C11.7098 20.6955 11.5572 20.4198 11.403 20.1456L10.8289 19.0769C10.8111 19.0438 10.8008 19.0072 10.7909 18.9712C10.7751 18.9109 10.7321 18.8565 10.7049 18.8007C10.5854 18.5517 10.4445 18.3126 10.3373 18.0591C10.2484 17.8491 10.1111 17.6569 10.074 17.4267C10.0241 17.1174 10.2118 16.8279 10.5182 16.7261C10.8349 16.6209 11.1446 16.7647 11.3329 17.1036C11.4712 17.3526 11.617 17.5981 11.7484 17.8511C11.7612 17.8753 11.7731 17.8951 11.7854 17.9104C11.7998 17.9282 11.8111 17.9479 11.8225 17.9677L12.3576 18.9045L12.445 19.0724C12.4514 19.0848 12.4574 19.0981 12.4628 19.111C12.4796 19.1525 12.4984 19.1935 12.5216 19.2325C12.5409 19.2656 12.5606 19.2987 12.5809 19.3318C12.9119 19.8832 13.28 20.4044 13.8274 20.7513C14.9712 21.4751 16.1406 22.1569 17.3778 22.7132C17.4969 22.7666 17.6046 22.8333 17.694 22.9375C18.9464 24.3955 20.4978 24.9459 22.3856 24.4785C23.108 24.2997 23.7231 23.942 24.2769 23.4499C24.4884 23.2621 24.6203 22.9795 24.9009 22.8782C25.3782 22.7053 25.8347 22.4889 26.2769 22.2434C27.103 21.7849 27.9296 21.3259 28.7453 20.8486C29.5017 20.4059 29.9122 19.6693 30.3194 18.9321C30.6736 18.2903 31.0407 17.6555 31.4117 17.0235C31.5738 16.7474 31.8549 16.6357 32.1192 16.7118C32.5837 16.8452 32.7334 17.2602 32.4977 17.733C32.1657 18.399 31.8426 19.069 31.5125 19.736C30.805 21.1668 29.7759 22.3125 28.4029 23.1223C27.517 23.645 26.6806 24.2068 26.0892 25.0704C25.5823 25.81 25.2507 26.6159 25.1178 27.5076C25.021 28.1559 25.0758 28.8061 25.0437 29.4543C25.0274 29.7784 25.3001 30.0427 25.5314 30.0778C25.8609 30.1277 26.1608 29.9108 26.2344 29.5882C26.2384 29.5714 26.2408 29.5546 26.2423 29.5378C26.2937 29.0412 26.2641 28.5437 26.2636 28.0467C26.2636 27.9879 26.2725 27.9286 26.2967 27.8752C26.3579 27.7374 26.3248 27.5808 26.3574 27.436C26.5314 26.6653 26.8999 25.9998 27.393 25.3916C27.6099 25.1243 27.8866 24.9242 28.1539 24.7256C28.518 24.4548 28.936 24.2587 29.3204 24.0136C29.7003 23.772 30.0659 23.5047 30.392 23.1939C30.8945 22.7152 31.4053 22.2414 31.7872 21.6525C31.934 21.4262 32.1153 21.2251 32.2398 20.982C32.4779 20.5166 32.7462 20.069 32.9552 19.5868C33.1854 19.0552 33.4898 18.5566 33.7092 18.0171C33.891 17.568 33.9048 17.0868 33.7269 16.6708Z" fill="#575CDD"/>
<path d="M13.1817 26.6845C13.158 26.6845 13.1343 26.683 13.1106 26.6805L9.28994 26.2586C8.93717 26.2195 8.68322 25.9023 8.72176 25.5496C8.76079 25.1968 9.07798 24.9429 9.43075 24.9814L13.2514 25.4033C13.6041 25.4424 13.8581 25.7596 13.8195 26.1123C13.783 26.4414 13.5048 26.6845 13.1817 26.6845Z" fill="#575CDD"/>
<path d="M28.8753 26.6844C28.5522 26.6844 28.274 26.4414 28.2375 26.1128C28.1984 25.76 28.4529 25.4429 28.8056 25.4038L32.6263 24.9819C32.979 24.9434 33.2962 25.1973 33.3353 25.5501C33.3743 25.9028 33.1198 26.22 32.7671 26.2591L28.9465 26.681C28.9227 26.6835 28.899 26.6844 28.8753 26.6844Z" fill="#575CDD"/>
<path d="M15.6965 16.0122C15.5488 16.0122 15.4005 15.9618 15.2795 15.8586L12.3566 13.3626C12.0868 13.1323 12.0547 12.7267 12.2855 12.4569C12.5157 12.1872 12.9213 12.1551 13.1911 12.3858L16.114 14.8818C16.3837 15.1121 16.4158 15.5177 16.1851 15.7874C16.0581 15.9362 15.8778 16.0122 15.6965 16.0122Z" fill="#575CDD"/>
<path d="M21.3783 13.8204C21.028 13.8204 20.7414 13.5393 20.7365 13.1875L20.6792 9.34418C20.6737 8.98993 20.9568 8.69794 21.3116 8.69251C21.6658 8.68559 21.9578 8.97067 21.9632 9.32541L22.0205 13.1687C22.026 13.5235 21.7424 13.815 21.3876 13.8204C21.3847 13.8204 21.3812 13.8204 21.3783 13.8204Z" fill="#575CDD"/>
<path d="M26.7873 16.1752C26.5936 16.1752 26.4019 16.0877 26.2754 15.9217C26.0605 15.6396 26.1153 15.2364 26.3974 15.0215L29.4567 12.6945C29.7388 12.4796 30.142 12.5344 30.3569 12.8165C30.5718 13.0986 30.517 13.5018 30.2349 13.7167L27.1761 16.0442C27.0595 16.1322 26.9226 16.1752 26.7873 16.1752Z" fill="#575CDD"/>
</svg>
