<svg width="42" height="42" viewBox="0 0 42 42" fill="none" xmlns="http://www.w3.org/2000/svg">
<circle cx="21" cy="21" r="20" stroke="#575CDD" stroke-width="1.5" stroke-linecap="round"/>
<path d="M15.2763 10.3348L15.2763 10.3348C14.9601 10.636 14.5963 10.8761 14.195 11.0484L11.9835 11.9977C10.2787 12.7296 8.98143 14.0902 8.33158 15.828L8.42515 15.863L8.33158 15.828C7.69549 17.5292 7.76476 19.3649 8.52461 21.0091V27.0751C8.52461 27.3522 8.74914 27.5768 9.02623 27.5768C9.30333 27.5768 9.52785 27.3522 9.52785 27.0751V20.8966C9.52785 20.8211 9.51079 20.7466 9.47805 20.6786L9.47802 20.6786C8.79149 19.2561 8.71809 17.6587 9.27128 16.1794C9.82453 14.7 10.9279 13.5426 12.3793 12.9196L14.5908 11.9702C14.5908 11.9702 14.5908 11.9702 14.5908 11.9702C15.102 11.7508 15.5656 11.4449 15.9684 11.0611L15.9684 11.0611C16.8879 10.185 17.4151 8.95437 17.4151 7.68429V7.11598C17.4151 6.83895 17.1906 6.61436 16.9135 6.61436C16.6364 6.61436 16.4119 6.83895 16.4119 7.11598V7.68429C16.4119 8.68096 15.9979 9.64727 15.2763 10.3348Z" fill="#575CDD" stroke="#575CDD" stroke-width="0.2"/>
<path d="M12.8988 25.6431L12.8117 25.5941C12.9923 25.273 13.0878 24.9083 13.0878 24.5398V17.9663C13.0878 17.6893 13.3123 17.4647 13.5894 17.4647C13.8665 17.4647 14.091 17.6893 14.091 17.9663V23.5845C14.091 24.3203 14.2719 25.0538 14.6139 25.7053L14.8578 26.1697L14.8578 26.1697C14.9437 26.3335 14.9829 26.5174 14.9714 26.7018L14.9713 26.7019L14.7583 30.0658L14.7583 30.0658C14.7415 30.3316 14.5207 30.5358 14.258 30.5358C14.247 30.5358 14.2364 30.5353 14.2261 30.5347L14.226 30.5347C13.9495 30.5172 13.7395 30.2789 13.757 30.0024L13.9701 26.6386C13.9701 26.6386 13.9701 26.6386 13.9701 26.6386C13.9701 26.6378 13.9699 26.6368 13.9694 26.6358L13.7257 26.1717L13.7257 26.1716L13.8142 26.1251C13.7893 26.0778 13.7653 26.03 13.742 25.9819L12.8988 25.6431ZM12.8988 25.6431L12.8117 25.5941L12.6122 25.9489C12.4764 26.1904 12.5621 26.4962 12.8035 26.632L12.8035 26.632C12.8811 26.6756 12.9656 26.6965 13.049 26.6965C13.224 26.6965 13.3945 26.6045 13.4866 26.4407C13.4866 26.4407 13.4866 26.4407 13.4866 26.4407L13.6838 26.09L12.8988 25.6431Z" fill="#575CDD" stroke="#575CDD" stroke-width="0.2"/>
<path d="M14.181 31.245L14.1809 31.245C13.9051 31.2278 13.6662 31.4372 13.6486 31.7139L13.6486 31.7139L13.5338 33.5268C13.5338 33.5268 13.5338 33.5268 13.5338 33.5268C13.5163 33.8033 13.7263 34.0416 14.0028 34.0591L14.0029 34.0591C14.0131 34.0597 14.0238 34.0601 14.0348 34.0601C14.2975 34.0601 14.5183 33.8559 14.5351 33.5902L14.5351 33.5902L14.6499 31.7774C14.6499 31.7774 14.6499 31.7774 14.6499 31.7774C14.6674 31.5008 14.4574 31.2625 14.181 31.245Z" fill="#575CDD" stroke="#575CDD" stroke-width="0.2"/>
<path d="M26.033 11.0611L26.033 11.0611C26.4358 11.4449 26.8994 11.7508 27.4106 11.9702L29.6221 12.9196C31.0734 13.5426 32.1769 14.7 32.7301 16.1794C33.2833 17.6587 33.2099 19.2561 32.5234 20.6786L32.5234 20.6787C32.4906 20.7467 32.4736 20.8211 32.4736 20.8967V27.0752C32.4736 27.3522 32.6981 27.5768 32.9752 27.5768C33.2523 27.5768 33.4768 27.3522 33.4768 27.0752V21.0091C34.2366 19.365 34.3059 17.5292 33.6698 15.828C33.02 14.0902 31.7228 12.7296 30.0179 11.9978L27.8063 11.0484C27.4051 10.8761 27.0413 10.6361 26.7251 10.3349C26.0035 9.64733 25.5895 8.68101 25.5895 7.68435V7.11598C25.5895 6.83895 25.365 6.61436 25.0879 6.61436C24.8108 6.61436 24.5863 6.83895 24.5863 7.11598V7.68429C24.5863 8.95437 25.1135 10.185 26.033 11.0611Z" fill="#575CDD" stroke="#575CDD" stroke-width="0.2"/>
<path d="M27.3874 25.7053L27.3874 25.7053C27.7295 25.0538 27.9103 24.3203 27.9103 23.5845V17.9663C27.9103 17.6893 28.1348 17.4647 28.4119 17.4647C28.689 17.4647 28.9135 17.6893 28.9135 17.9663V24.5398C28.9135 24.9083 29.009 25.273 29.1896 25.5941L29.3892 25.9489C29.5251 26.1904 29.4393 26.4962 29.1979 26.632L29.1978 26.632C29.1203 26.6756 29.0358 26.6964 28.9524 26.6964C28.7773 26.6964 28.6069 26.6045 28.5148 26.4406L27.3874 25.7053ZM27.3874 25.7053L27.1436 26.1697L27.1436 26.1697C27.0576 26.3335 27.0184 26.5176 27.0301 26.7019C27.0301 26.7019 27.0301 26.7019 27.0301 26.7019L27.4662 33.5902L27.566 33.5839L27.4662 33.5902C27.483 33.856 27.7037 34.0602 27.9665 34.0602C27.977 34.0602 27.9878 34.0599 27.9988 34.0591M27.3874 25.7053L28.5148 26.4406L28.3176 26.0899C28.3039 26.1172 28.2899 26.1445 28.2757 26.1716L28.2757 26.1716L28.0319 26.636L28.0319 26.636C28.0314 26.6368 28.0313 26.6377 28.0313 26.6384C28.0313 26.6384 28.0313 26.6384 28.0313 26.6384L28.4675 33.5268L28.4675 33.5269C28.4849 33.8032 28.2751 34.0415 27.9988 34.0591M27.9988 34.0591C27.9987 34.0591 27.9986 34.0591 27.9985 34.0592L27.9922 33.9594L27.999 34.0591C27.9989 34.0591 27.9989 34.0591 27.9988 34.0591Z" fill="#575CDD" stroke="#575CDD" stroke-width="0.2"/>
<path d="M24.3407 13.2086L24.3407 13.2086C24.5568 13.0352 24.8726 13.0698 25.0459 13.2858L25.0459 13.2858C25.3996 13.7266 25.5895 14.2311 25.5895 14.7449C25.5895 15.6177 25.0673 16.4108 24.1482 16.9835C23.4114 17.4428 22.4763 17.7223 21.4755 17.7925V18.5383C22.3683 18.616 23.1559 18.8992 23.7285 19.322C24.3211 19.7595 24.6891 20.3519 24.6891 21.0207C24.6891 21.6895 24.3211 22.2818 23.7284 22.7194C23.1558 23.1422 22.3682 23.4254 21.4754 23.5031V24.8858C22.1576 24.9623 22.758 25.1935 23.1956 25.5312C23.6529 25.8843 23.937 26.3583 23.937 26.8932C23.937 27.2981 23.771 27.6844 23.4648 28.0104L23.4648 28.0104C23.275 28.2123 22.9576 28.2223 22.7557 28.0326L24.3407 13.2086ZM24.3407 13.2086C24.1247 13.382 24.0901 13.6977 24.2635 13.9138L24.2635 13.9138M24.3407 13.2086L24.2635 13.9138M23.0416 13.0661C23.2979 13.1713 23.5909 13.0486 23.696 12.7923L23.696 12.7923C23.8011 12.536 23.6785 12.243 23.4222 12.1379L23.4222 12.1379C22.8389 11.8987 22.1834 11.7501 21.5022 11.6994V7.11598C21.5022 6.83895 21.2777 6.61436 21.0006 6.61436C20.7235 6.61436 20.499 6.83895 20.499 7.11598V11.6958C19.4881 11.7628 18.5429 12.043 17.7995 12.5063C16.8805 13.079 16.3583 13.8721 16.3583 14.7449C16.3583 15.6178 16.8805 16.4108 17.7995 16.9836C18.5364 17.4428 19.4715 17.7223 20.4722 17.7925V18.5384C19.5795 18.616 18.7919 18.8993 18.2192 19.322C17.6266 19.7596 17.2586 20.352 17.2586 21.0207C17.2586 21.6895 17.6265 22.2819 18.2192 22.7195C18.7918 23.1422 19.5794 23.4255 20.4722 23.5031V24.8858C19.7901 24.9624 19.1897 25.1935 18.7521 25.5313C18.2947 25.8843 18.0106 26.3584 18.0106 26.8933C18.0106 27.4282 18.2947 27.9022 18.7521 28.2553C19.1897 28.5931 19.7901 28.8242 20.4722 28.9008V30.1778C19.5394 30.3301 18.8184 30.9114 18.8184 31.6699C18.8184 32.4284 19.5394 33.0097 20.4722 33.162V33.7193C20.4722 33.9963 20.6968 34.2209 20.9739 34.2209C21.2509 34.2209 21.4755 33.9963 21.4755 33.7193V33.1619C22.4083 33.0096 23.1293 32.4283 23.1293 31.6698C23.1293 30.9114 22.4083 30.3301 21.4755 30.1777V28.8999C21.5228 28.8946 21.5703 28.8887 21.6177 28.8817C21.8918 28.8412 22.0811 28.5861 22.0405 28.312M23.0416 13.0661L22.0405 28.312M23.0416 13.0661C22.4313 12.8158 21.7162 12.6826 20.9739 12.6826M23.0416 13.0661L20.9739 12.6826M22.0405 28.312C22.0405 28.3121 22.0405 28.3121 22.0405 28.3121L21.9415 28.3267L22.0405 28.312ZM22.0405 28.312C21.9999 28.0378 21.7448 27.8491 21.471 27.8892L21.4708 27.8892C21.3073 27.9134 21.1401 27.9257 20.9738 27.9257C20.5006 27.9257 20.0014 27.8124 19.6237 27.6205C19.2399 27.4256 19.0138 27.1682 19.0138 26.8932C19.0138 26.6183 19.2398 26.3609 19.6237 26.1659C20.0014 25.9741 20.5006 25.8608 20.9738 25.8608C21.447 25.8608 21.9462 25.9741 22.3239 26.1659C22.7077 26.3608 22.9338 26.6183 22.9338 26.8932C22.9338 27.0313 22.8723 27.1758 22.7335 27.3235L22.0405 28.312ZM24.2635 13.9138C24.4808 14.1846 24.5863 14.4638 24.5863 14.7449M24.2635 13.9138L24.5863 14.7449M24.5863 14.7449C24.5863 15.2794 24.1971 15.7931 23.5344 16.1791M24.5863 14.7449L23.5344 16.1791M23.5344 16.1791C22.8751 16.5631 21.9649 16.8071 20.9739 16.8071M23.5344 16.1791L20.9739 16.8071M20.9739 16.8071C19.9829 16.8071 19.0727 16.5631 18.4134 16.1791M20.9739 16.8071L18.4134 16.1791M18.4134 16.1791C17.7507 15.7931 17.3615 15.2794 17.3615 14.7449M18.4134 16.1791L17.3615 14.7449M17.3615 14.7449C17.3615 14.2104 17.7507 13.6966 18.4134 13.3106M17.3615 14.7449L18.4134 13.3106M18.4134 13.3106C19.0727 12.9266 19.9829 12.6826 20.9739 12.6826M18.4134 13.3106L20.9739 12.6826M22.7335 27.3235C22.5439 27.5254 22.5538 27.8428 22.7557 28.0325L22.7335 27.3235ZM22.1261 31.6698C22.1261 31.7134 22.1063 31.7678 22.0547 31.829C22.0035 31.8898 21.9251 31.9519 21.8214 32.0076C21.6142 32.1191 21.3177 32.1989 20.9739 32.1989C20.6301 32.1989 20.3337 32.1191 20.1264 32.0077C20.0227 31.9519 19.9443 31.8899 19.8931 31.829C19.8415 31.7678 19.8217 31.7134 19.8217 31.6698C19.8217 31.6263 19.8415 31.5719 19.8931 31.5107C19.9443 31.4498 20.0227 31.3878 20.1264 31.332C20.3336 31.2206 20.6301 31.1408 20.9739 31.1408C21.3177 31.1408 21.6142 31.2206 21.8214 31.332C21.9251 31.3878 22.0035 31.4498 22.0547 31.5107C22.1063 31.5719 22.1261 31.6263 22.1261 31.6698ZM23.6859 21.0207C23.6859 21.4019 23.4013 21.7756 22.902 22.0598C22.4067 22.3418 21.7213 22.5218 20.9739 22.5218C20.2266 22.5218 19.5411 22.3418 19.0458 22.0598C18.5465 21.7756 18.2619 21.4019 18.2619 21.0207C18.2619 20.6395 18.5465 20.2658 19.0458 19.9816C19.5411 19.6995 20.2266 19.5196 20.9739 19.5196C21.7213 19.5196 22.4067 19.6995 22.902 19.9816C23.4013 20.2658 23.6859 20.6395 23.6859 21.0207Z" fill="#575CDD" stroke="#575CDD" stroke-width="0.2"/>
</svg>
