<svg width="42" height="42" viewBox="0 0 42 42" fill="none" xmlns="http://www.w3.org/2000/svg">
<circle cx="21" cy="21" r="20" stroke="#575CDD" stroke-width="1.5" stroke-linecap="round"/>
<path d="M21.3846 29.1159C24.8516 29.1159 27.6722 26.2744 27.6722 22.7817C27.6722 19.9755 23.727 15.6244 21.8674 13.8467C21.5973 13.5885 21.1719 13.5885 20.9019 13.8467C18.9872 15.6771 15.097 19.9832 15.097 22.7817C15.097 26.2744 17.9177 29.1159 21.3846 29.1159ZM21.3848 15.3329C23.0955 17.0647 26.275 20.7109 26.275 22.7817C26.275 25.5039 24.0812 27.7186 21.3846 27.7186C18.6881 27.7186 16.4943 25.5039 16.4943 22.7817C16.4943 20.7131 19.6741 17.0655 21.3848 15.3329Z" fill="#575CDD"/>
<path d="M33.3079 21.3845C33.3079 14.8194 27.9495 9.46143 21.3848 9.46143C20.1588 9.46143 18.95 9.64763 17.7918 10.0148C17.424 10.1314 17.2203 10.5241 17.3369 10.8919C17.4535 11.2597 17.8462 11.4633 18.214 11.3468C19.2355 11.0228 20.3023 10.8587 21.3848 10.8587C27.1888 10.8587 31.9106 15.5805 31.9106 21.3845C31.9106 23.5408 31.217 25.6578 29.9842 27.4196C30.0117 27.1049 29.8226 26.8006 29.5097 26.6963C29.1435 26.5743 28.748 26.7721 28.626 27.1382L27.638 30.1022C27.5543 30.3532 27.6196 30.63 27.8068 30.8171C27.9945 31.0049 28.2715 31.0693 28.5217 30.9859L31.4856 29.9979C31.8517 29.8759 32.0495 29.4802 31.9274 29.1142C31.8054 28.7482 31.41 28.5502 31.0437 28.6724L30.7116 28.7831C32.4661 26.5685 33.3079 23.9383 33.3079 21.3845Z" fill="#575CDD"/>
<path d="M21.3847 33.3078C22.6106 33.3078 23.8194 33.1216 24.9777 32.7544C25.3455 32.6379 25.5491 32.2451 25.4325 31.8773C25.3159 31.5096 24.9233 31.306 24.5554 31.4225C23.5339 31.7464 22.4671 31.9106 21.3847 31.9106C15.5807 31.9106 10.8588 27.1887 10.8588 21.3847C10.8588 19.2285 11.5525 17.1115 12.7853 15.3497C12.7577 15.6644 12.9469 15.9687 13.2598 16.0729C13.6257 16.195 14.0214 15.9972 14.1435 15.6311L15.1315 12.6671C15.2151 12.4161 15.1498 12.1393 14.9627 11.9522C14.7756 11.7651 14.4988 11.6998 14.2477 11.7834L11.2837 12.7714C10.9177 12.8934 10.7199 13.2891 10.8419 13.6551C10.964 14.0211 11.3594 14.2191 11.7256 14.0969L12.0578 13.9862C10.3033 16.2008 9.46155 18.8309 9.46155 21.3847C9.46155 27.9498 14.82 33.3078 21.3847 33.3078Z" fill="#575CDD"/>
</svg>
