<svg width="111" height="109" viewBox="0 0 111 109" fill="none" xmlns="http://www.w3.org/2000/svg">
<path d="M108.89 44.0682C106.795 43.3152 104.719 42.4967 102.663 41.6519C100.358 40.7025 98.1117 39.6351 96.1997 37.9981C94.6936 36.7146 93.8096 35.1431 93.6983 33.1066C93.5739 30.8017 94.0977 28.6211 94.7263 26.4471C95.4532 23.9392 96.4026 21.4967 97.339 19.0608C97.9218 17.5482 96.8086 16.1404 95.2895 16.4219C94.6216 16.5463 93.9667 16.7035 93.3054 16.8607C90.3325 17.5679 87.3269 18.1114 84.282 18.3471C82.7563 18.465 81.2502 18.3013 79.79 17.8429C77.5898 17.1553 76.326 15.4725 75.4289 13.508C73.746 9.8345 72.9013 5.90561 72.1352 1.96362C71.8667 0.595061 71.1071 -0.0924945 69.9023 0.0515647C69.2409 0.130142 68.8677 0.63435 68.4421 1.05343C65.8293 3.6334 63.2952 6.31159 60.2307 8.3939C58.9407 9.27136 57.5852 10.0244 56.0071 10.2536C53.9903 10.5482 52.2288 9.84759 50.5591 8.81299C48.3261 7.43787 46.4206 5.65678 44.5348 3.85604C43.3299 2.70356 42.184 1.48561 40.9333 0.392068C40.0296 -0.400258 38.6676 0.0777573 38.2485 1.20404C37.8753 2.20591 37.7378 3.26671 37.5086 4.30131C36.7949 7.5361 36.0484 10.7643 34.5947 13.7634C33.3571 16.3106 31.4385 17.9477 28.4984 18.262C25.4731 18.5894 22.5461 17.9869 19.6125 17.4631C18.0148 17.175 16.4367 16.769 14.8455 16.4154C14.1383 16.2582 13.5489 16.4743 13.084 17.0113C12.606 17.5679 12.4619 18.1768 12.737 18.8906C13.156 19.9579 13.5358 21.0384 13.9287 22.1188C15.0026 25.0393 16.0307 27.9729 16.3908 31.0898C16.7051 33.8596 16.0962 36.2628 13.8174 38.0963C12.1869 39.4059 10.3665 40.3685 8.48067 41.2263C6.14298 42.2871 3.70707 43.1056 1.33009 44.0551C-0.228366 44.6772 -0.464099 46.3077 0.871723 47.3423C1.97181 48.1935 3.11119 48.9859 4.21128 49.8371C6.57516 51.6706 8.92594 53.5172 10.7463 55.9335C12.0298 57.636 12.7894 59.4825 12.3637 61.6696C12.0756 63.143 11.4994 64.4984 10.7922 65.8081C9.14858 68.8595 7.02698 71.5835 4.91193 74.3075C4.38153 74.9886 4.20473 75.735 4.51249 76.5208C4.74168 77.1102 5.23279 77.4965 5.90725 77.5554C7.41987 77.6864 8.92594 77.8305 10.4451 77.9352C13.4966 78.1513 16.5152 78.518 19.403 79.5919C21.78 80.4759 23.3581 82.1064 23.9998 84.5816C24.5564 86.7228 24.6153 88.9165 24.6153 91.1166C24.6153 91.9221 24.6022 92.7275 24.5171 93.5329C24.4385 94.3121 24.4581 95.0979 24.4123 95.8837C24.3599 96.807 24.2355 97.7368 24.2224 98.6601C24.2028 100.088 25.6303 100.913 26.8941 100.245C28.721 99.2822 30.5152 98.2672 32.3618 97.3374C34.8763 96.0736 37.43 94.8884 40.2785 94.5872C41.9352 94.4104 43.4543 94.7378 44.8229 95.7134C46.9183 97.213 48.3392 99.2953 49.6947 101.423C51.0305 103.525 52.1699 105.745 53.3813 107.919C53.7218 108.528 54.1605 108.987 54.9529 109C55.7779 109.013 56.3083 108.679 56.6947 107.972C57.6114 106.295 58.5347 104.625 59.4907 102.975C60.7611 100.782 62.11 98.6339 63.9435 96.8463C64.9977 95.8117 66.1567 94.9539 67.6628 94.6723C69.8957 94.2532 71.9715 94.8818 74.008 95.6414C76.4504 96.5582 78.7423 97.8154 81.0341 99.0465C81.6693 99.387 82.311 99.7078 82.9266 100.075C83.6403 100.507 84.3737 100.644 85.1005 100.186C85.9387 99.662 86.0107 98.8435 85.9322 97.9267C85.572 93.6639 85.166 89.3879 86.0173 85.1382C86.4233 83.1214 87.3597 81.445 89.2128 80.3515C90.8367 79.3955 92.6113 78.9305 94.4251 78.5769C97.542 77.968 100.718 77.837 103.874 77.5882C104.621 77.5292 105.21 77.287 105.557 76.6452C105.937 75.9315 105.845 75.2374 105.347 74.5629C103.926 72.6443 102.453 70.7716 101.15 68.7744L100.233 67.3403C100.201 67.2748 100.155 67.2225 100.122 67.1635C99.3035 65.7884 98.557 64.3871 98.0659 62.8548C97.3652 60.6612 97.5879 58.6051 98.8778 56.6603C100.351 54.4405 102.316 52.7118 104.365 51.0682C106.042 49.7193 107.77 48.4358 109.473 47.1327C110.553 46.2946 110.141 44.52 108.89 44.0682ZM19.547 56.287C19.5667 56.274 19.5863 56.2609 19.5994 56.2478C19.5798 56.3984 19.5667 56.5359 19.5536 56.6668C19.547 56.6603 19.5405 56.6537 19.5405 56.6472C19.4619 56.5293 19.4095 56.4049 19.547 56.287Z" fill="#F62828"/>
</svg>
