<svg width="43" height="43" viewBox="0 0 43 43" fill="none" xmlns="http://www.w3.org/2000/svg">
<path d="M41.8851 1.11484C41.0855 0.315143 39.9804 -0.0855458 38.854 0.0153193C35.9766 0.272899 30.798 1.03674 25.6725 2.34143C19.5591 3.89758 15.4233 5.72264 13.3799 7.76606C10.4718 10.6742 8.42796 15.0562 7.91263 19.488C7.6459 21.7818 7.78657 23.9588 8.3307 25.9586C8.64758 27.1232 9.09496 28.1947 9.66597 29.1676C8.87526 30.0236 8.13997 30.8473 7.46818 31.6204C3.01206 36.7492 0.337502 40.7431 0.225803 40.9107C-0.185804 41.5281 -0.0190115 42.3624 0.598525 42.7741C0.827634 42.9268 1.08656 43 1.34263 43C1.77682 43 2.20304 42.7898 2.46197 42.4015C2.48834 42.3619 5.15215 38.3837 9.49691 33.3832C10.0583 32.7372 10.6657 32.0545 11.3125 31.3476C11.368 31.4054 11.4228 31.4637 11.4796 31.5205C12.9706 33.0115 14.8418 34.0709 17.0414 34.6694C18.3855 35.0352 19.8094 35.2186 21.2955 35.2186C22.0202 35.2186 22.76 35.1749 23.512 35.0875C27.9438 34.5722 32.3258 32.5283 35.234 29.6202C37.2773 27.5769 39.1024 23.441 40.6586 17.3276C41.9634 12.202 42.7271 7.02338 42.9847 4.14608C43.0855 3.01927 42.6848 1.91446 41.8851 1.11484ZM40.3078 3.90623C39.7304 10.3554 37.0919 23.9612 33.3336 27.7196C28.3842 32.6689 18.3802 34.6201 13.3799 29.62C13.3032 29.5433 13.2281 29.4652 13.1546 29.3861C16.9028 25.499 21.6701 21.1833 26.9105 17.9392C27.5415 17.5486 27.7364 16.7205 27.3457 16.0894C26.9552 15.4585 26.127 15.2634 25.4959 15.6542C20.2179 18.9215 15.4243 23.2076 11.6118 27.1171C9.02055 21.7825 11.0598 13.8868 15.2802 9.66637C19.0385 5.90807 32.6445 3.26954 39.0937 2.69215C39.1303 2.68887 39.1658 2.68728 39.2004 2.68728C39.5945 2.68728 39.8579 2.88825 39.9849 3.01515C40.1229 3.15322 40.3484 3.45263 40.3078 3.90623Z" fill="url(#paint0_linear)"/>
<defs>
<linearGradient id="paint0_linear" x1="21.5" y1="43" x2="21.5" y2="0" gradientUnits="userSpaceOnUse">
<stop stop-color="#5558FF"/>
<stop offset="1" stop-color="#00C0FF"/>
</linearGradient>
</defs>
</svg>
