<svg width="52" height="42" viewBox="0 0 52 42" fill="none" xmlns="http://www.w3.org/2000/svg">
<path d="M50.2 25.5C50.2 24.6387 49.9563 23.8334 49.5349 23.1486C50.55 22.3228 51.2 21.0647 51.2 19.6572C51.2 17.1327 49.1393 15 46.7 15H39.1V7.5C39.1 3.3645 35.7355 0 31.6 0C30.7716 0 30.1 0.6716 30.1 1.5V9.6972L24.2641 13.5878C22.7075 14.6256 21.6436 16.2126 21.2592 18H18.1V16.5C18.1 15.6716 17.4284 15 16.6 15H1.5C0.6716 15 0 15.6716 0 16.5V40.5C0 41.3284 0.6716 42 1.5 42H16.6C17.4284 42 18.1 41.3284 18.1 40.5V39H22.0026C24.1599 40.9394 26.9197 42 29.8426 42H43.7C46.1813 42 48.2 39.9813 48.2 37.5C48.2 36.5943 47.9301 35.7509 47.4679 35.0441C48.5211 34.2198 49.2 32.9381 49.2 31.5C49.2 30.5943 48.9301 29.7509 48.4679 29.0441C49.5211 28.2198 50.2 26.9381 50.2 25.5ZM15.1 39H3V18H15.1V39ZM47.3678 21H45.7C44.8716 21 44.2 21.6716 44.2 22.5C44.2 23.3284 44.8716 24 45.7 24C46.5271 24 47.2 24.6729 47.2 25.5C47.2 26.3271 46.5271 27 45.7 27C45.5748 27 44.9164 27 44.7 27C43.8716 27 43.2 27.6716 43.2 28.5C43.2 29.3284 43.8716 30 44.7 30C45.5271 30 46.2 30.6729 46.2 31.5C46.2 32.3271 45.5271 33 44.7 33C44.5748 33 43.9164 33 43.7 33C42.8716 33 42.2 33.6716 42.2 34.5C42.2 35.3284 42.8716 36 43.7 36C44.5271 36 45.2 36.6729 45.2 37.5C45.2 38.3271 44.5271 39 43.7 39H29.8426C27.5074 39 25.3119 38.0906 23.6606 36.4393C23.3793 36.158 22.9978 36 22.6 36H18.1V21H22.6C23.4284 21 24.1 20.3284 24.1 19.5C24.1 18.1242 24.7834 16.8472 25.9282 16.084L32.4321 11.7481C32.8494 11.4699 33.1001 11.0015 33.1001 10.5V3.257C34.8462 3.8761 36.1001 5.5444 36.1001 7.5V16.5C36.1001 17.3284 36.7717 18 37.6001 18H46.7001C47.4852 18 48.2001 18.7898 48.2001 19.6572C48.2 20.2445 47.8607 20.754 47.3678 21ZM10.6 24C11.4284 24 12.1 23.3284 12.1 22.5C12.1 21.6716 11.4284 21 10.6 21C9.7716 21 9.1 21.6716 9.1 22.5C9.1 23.3284 9.7716 24 10.6 24Z" fill="url(#paint0_linear)"/>
<defs>
<linearGradient id="paint0_linear" x1="25.6" y1="42" x2="25.6" y2="0" gradientUnits="userSpaceOnUse">
<stop stop-color="#5558FF"/>
<stop offset="1" stop-color="#00C0FF"/>
</linearGradient>
</defs>
</svg>
