<svg width="209" height="14" viewBox="0 0 209 14" fill="none" xmlns="http://www.w3.org/2000/svg">
<path fill-rule="evenodd" clip-rule="evenodd" d="M24.4708 0.0885463C21.3083 0.591672 18.8837 2.45141 17.9199 5.11351C17.5631 6.09891 17.3932 7.69784 17.5292 8.7888C17.9255 11.9652 20.7794 13.8861 24.8143 13.6925C27.009 13.5872 28.4702 13.0268 29.6711 11.8296L30.279 11.2238L29.1338 10.2L27.9887 9.17628L27.4454 9.60309C26.5407 10.314 26.0444 10.4975 24.856 10.5604C23.8928 10.6114 23.6635 10.5777 23.0181 10.291C21.6719 9.69264 21.086 8.42178 21.4002 6.78194C21.8281 4.54797 23.2658 3.26478 25.4801 3.14034C26.7145 3.07098 27.6733 3.40102 28.3226 4.11893C28.5918 4.41645 28.7883 4.5321 28.9073 4.463C29.3487 4.20639 31.4271 2.53507 31.4271 2.4366C31.4271 2.21539 30.4196 1.25306 29.8465 0.927089C28.5473 0.187939 26.1735 -0.182226 24.4708 0.0885463ZM94.0402 0.111755C91.9046 0.413867 90.3858 1.32007 89.6636 2.7231C88.4609 5.05962 89.3356 7.06831 91.9101 7.88168C92.4839 8.06303 93.3788 8.33196 93.8988 8.47948C95.2196 8.85423 95.7223 9.17614 95.7223 9.64701C95.7223 11.0464 92.5012 11.242 89.819 10.0054L88.8381 9.55326L88.114 10.9235C87.581 11.9323 87.4316 12.3273 87.5479 12.421C87.8449 12.6603 89.1701 13.1739 90.1167 13.4167C91.4452 13.7574 94.5127 13.7621 95.649 13.4251C98.2016 12.6683 99.5576 11.161 99.5623 9.07491C99.5641 8.31085 99.5029 8.0507 99.2052 7.5578C98.6041 6.56191 97.9009 6.21168 94.7321 5.32986C93.5232 4.9934 93.0208 4.67017 93.0208 4.22881C93.0208 3.71047 93.1667 3.50657 93.7466 3.21443C94.793 2.68704 97.1903 2.89291 98.698 3.63953L99.1829 3.87976L99.8822 2.51488L100.581 1.15L100.279 0.961181C99.0673 0.203805 96.174 -0.190094 94.0402 0.111755ZM106.728 0.0865795C104.508 0.432749 102.935 1.36413 102.17 2.78526C101.74 3.58289 101.675 5.37576 102.05 6.08842C102.593 7.12339 103.425 7.60344 105.868 8.29171C107.737 8.81857 108.196 9.06928 108.261 9.59758C108.436 11.0344 105.048 11.272 102.411 10.0079C101.892 9.75912 101.461 9.5665 101.453 9.57975C101.108 10.1362 100.045 12.1692 100.045 12.2725C100.045 12.7659 102.959 13.5918 105.042 13.6889C109.076 13.877 111.87 12.2195 112.163 9.46619C112.313 8.05411 111.686 6.93693 110.409 6.34005C110.02 6.15857 108.943 5.79811 108.014 5.53901C106.143 5.01713 105.671 4.7634 105.607 4.24625C105.519 3.5286 106.754 2.84453 108.122 2.85305C108.768 2.85711 110.313 3.2261 111.043 3.55037L111.752 3.86573L112.449 2.50439C112.833 1.75567 113.147 1.12155 113.147 1.09519C113.147 0.987144 111.76 0.479167 110.963 0.295199C109.92 0.0543228 107.651 -0.0572643 106.728 0.0865795ZM8.06 1.44123C7.62034 2.10826 5.95231 4.63084 4.3533 7.04681L1.44597 11.4395L-1.86642e-05 13.4719H1.4407L2.82521 13.4702L4.20972 13.4686L4.99166 12.159L5.7736 10.8494H8.67243C10.2668 10.8494 11.5713 10.8751 11.5713 10.9065C11.5713 10.9708 11.9382 12.7254 12.0462 13.1769C12.1152 13.4655 12.1577 13.4719 14.0051 13.4719C15.0439 13.4719 15.8936 13.4416 15.8936 13.4047C15.8936 13.3352 13.2537 2.68114 12.8481 1.11342L12.619 0.228325H10.7393H8.85964L8.06 1.44123ZM33.6603 0.392231C33.6303 0.482445 33.258 2.20831 32.8331 4.22763C31.7466 9.39106 31.7828 10.5376 33.0777 11.9657C34.1172 13.1121 35.2525 13.5831 37.2353 13.6906C40.9293 13.8909 43.4654 12.2527 44.5772 8.94812C44.7627 8.39661 46.4203 0.648711 46.4203 0.332832C46.4203 0.275399 45.576 0.228325 44.5439 0.228325C42.7094 0.228325 42.6659 0.234881 42.5954 0.523356C42.5559 0.685557 42.1789 2.50006 41.7577 4.55544C41.3367 6.61082 40.8689 8.57231 40.7184 8.91429C40.3795 9.68412 39.5715 10.4123 38.9255 10.5299C38.0488 10.6896 36.9995 10.5324 36.609 10.1829C36.1705 9.79033 35.8846 9.15989 35.8846 8.58556C35.8846 8.34547 36.2493 6.38437 36.695 4.22763C37.1407 2.07089 37.5054 0.288774 37.5054 0.267269C37.5054 0.245896 36.6526 0.228325 35.6102 0.228325C34.2131 0.228325 33.7005 0.271465 33.6603 0.392231ZM49.0616 0.379774C48.9682 0.646744 46.4199 13.1196 46.42 13.308C46.4203 13.4313 46.8886 13.4719 48.3114 13.4719C49.3514 13.4719 50.2024 13.4505 50.2024 13.4245C50.2024 13.3982 50.3543 12.6525 50.5401 11.7673C50.7258 10.8821 50.8778 10.1454 50.8778 10.1303C50.8778 10.1153 51.8656 10.0673 53.0727 10.0237C55.4187 9.93916 56.1863 9.78653 57.4985 9.14363C58.4306 8.68705 59.4317 7.66087 59.9003 6.68202C60.2122 6.0302 60.2596 5.761 60.2623 4.621C60.2651 3.44075 60.2269 3.23357 59.8795 2.54687C59.4116 1.62179 58.6184 1.00839 57.3613 0.59967C56.5667 0.341224 56.134 0.308967 52.8032 0.258877C49.8034 0.21377 49.1118 0.236061 49.0616 0.379774ZM61.8732 6.83845L60.5095 13.4719H62.4287H64.3482L64.5805 12.3246C64.7081 11.6936 64.8735 10.8969 64.9477 10.5544L65.083 9.93155H66.052H67.021L68.0322 11.7017L69.0433 13.4719H71.0401H73.0368L72.8439 13.1113C72.7377 12.9129 72.2224 12.0273 71.6987 11.1431L70.7466 9.53569L71.5446 9.14454C72.5439 8.65492 73.1625 8.13187 73.6816 7.33817C75.0903 5.18431 74.6727 2.32921 72.778 1.1618C71.5473 0.403377 71.0227 0.322342 66.9516 0.260975L63.237 0.204985L61.8732 6.83845ZM77.6224 0.264778C77.6224 0.28484 77.0146 3.24826 76.2717 6.85012C75.5288 10.452 74.9209 13.4154 74.9209 13.4355C74.9209 13.4555 77.3743 13.4719 80.3729 13.4719H85.8249L86.0559 12.3246C86.1829 11.6936 86.3193 11.0444 86.3591 10.8822L86.4315 10.5872H82.8518H79.2721L79.3809 10.0955C79.4409 9.82508 79.5603 9.26439 79.6464 8.84978L79.8028 8.09581H82.8323C84.4986 8.09581 85.8619 8.07286 85.8619 8.04467C85.8619 8.01661 85.9835 7.41999 86.1321 6.719C86.2806 6.01801 86.4022 5.42139 86.4022 5.39333C86.4022 5.36514 85.0432 5.34219 83.3824 5.34219H80.3626L80.5853 4.26041L80.808 3.17863L84.2562 3.14362L87.7042 3.10874L87.9503 1.83237C88.0855 1.13046 88.2245 0.482445 88.2592 0.392231C88.3089 0.262811 87.1958 0.228325 82.9723 0.228325C80.0298 0.228325 77.6224 0.244716 77.6224 0.264778ZM114.915 4.3619C114.169 7.94292 114.064 8.61847 114.133 9.41558C114.368 12.1343 116.476 13.7296 119.833 13.7296C122.258 13.7296 124.307 12.829 125.514 11.2326C126.411 10.0459 126.745 9.01788 127.606 4.78635C128.05 2.60391 128.444 0.685557 128.482 0.523356L128.55 0.228325H126.659C124.81 0.228325 124.767 0.23475 124.696 0.523356C124.656 0.685557 124.29 2.44105 123.882 4.42432C123.03 8.56917 122.892 9.0344 122.307 9.72254C121.771 10.3543 121.205 10.5872 120.209 10.5869C118.775 10.5867 118.01 9.90074 118.01 8.61362C118.01 8.15272 119.157 2.17802 119.563 0.523356L119.636 0.228325H117.706H115.776L114.915 4.3619ZM129.815 6.83845L128.452 13.4719H130.371H132.29L132.523 12.3246C132.65 11.6936 132.816 10.8969 132.89 10.5544L133.025 9.93155H133.994H134.963L135.974 11.7017L136.986 13.4719H138.982H140.979L140.785 13.1113C140.678 12.9129 140.191 12.0722 139.702 11.2428C139.213 10.4134 138.812 9.67586 138.812 9.60374C138.812 9.53162 139.209 9.27344 139.694 9.02994C141.31 8.21867 142.279 6.76397 142.423 4.93059C142.597 2.73556 141.536 1.22133 139.351 0.546434C138.741 0.358007 137.944 0.306869 134.894 0.260975L131.179 0.204985L129.815 6.83845ZM145.565 0.264778C145.565 0.28484 144.957 3.24826 144.214 6.85012C143.471 10.452 142.863 13.4154 142.863 13.4355C142.863 13.4555 145.316 13.4719 148.315 13.4719H153.767L153.998 12.3246C154.125 11.6936 154.262 11.0444 154.301 10.8822L154.374 10.5872H150.794H147.214L147.323 10.0955C147.383 9.82508 147.503 9.26439 147.589 8.84978L147.745 8.09581H150.772H153.799L153.864 7.80078C153.982 7.26146 154.344 5.44604 154.344 5.39372C154.344 5.3654 152.985 5.34219 151.325 5.34219H148.305L148.527 4.26041L148.75 3.17863L152.198 3.14362L155.646 3.10874L155.893 1.83237C156.028 1.13046 156.167 0.482445 156.201 0.392231C156.251 0.262811 155.138 0.228325 150.915 0.228325C147.972 0.228325 145.565 0.244716 145.565 0.264778ZM55.5244 3.42698C56.1531 3.68202 56.4158 4.10254 56.4158 4.85336C56.4158 5.85515 55.8856 6.59115 54.9436 6.89746C54.691 6.97967 53.8172 7.04681 53.0019 7.04681H51.5194L51.593 6.68622C51.6336 6.48783 51.8056 5.63237 51.9754 4.78491L52.2841 3.24419H53.6789C54.5662 3.24419 55.2378 3.31067 55.5244 3.42698ZM69.7072 3.42698C70.3472 3.68661 70.5986 4.10004 70.5986 4.89309C70.5986 5.74841 70.2066 6.34988 69.3869 6.75178C68.8689 7.00577 68.5735 7.04681 67.2606 7.04681C66.131 7.04681 65.7359 7.00433 65.7358 6.8829C65.7358 6.79282 65.8964 5.9371 66.0928 4.9816L66.4498 3.24419H67.853C68.7478 3.24419 69.4199 3.31041 69.7072 3.42698ZM137.649 3.42698C138.289 3.68661 138.541 4.10004 138.541 4.89309C138.541 5.74841 138.149 6.34988 137.329 6.75178C136.811 7.00577 136.516 7.04681 135.203 7.04681C134.073 7.04681 133.678 7.00433 133.678 6.8829C133.678 6.79282 133.839 5.9371 134.035 4.9816L134.392 3.24419H135.795C136.69 3.24419 137.362 3.31041 137.649 3.42698ZM10.5075 5.97356C10.7441 7.07041 10.906 7.99851 10.8674 8.03601C10.8289 8.07352 10.0599 8.08755 9.1587 8.06722L7.52011 8.03025L8.76833 5.97539C9.45491 4.8451 10.0303 3.93365 10.0469 3.94991C10.0637 3.96617 10.2709 4.87683 10.5075 5.97356Z" fill="#575CDD"/>
<path fill-rule="evenodd" clip-rule="evenodd" d="M164.91 0.163906C164.819 0.426155 162.273 12.8986 162.273 13.0797C162.273 13.2023 162.711 13.2436 164.01 13.2436H165.747L166.395 10.0638C167.196 6.14004 167.174 6.20312 167.461 6.88405C167.582 7.17252 168.123 8.41165 168.662 9.63767L169.642 11.8668L170.516 11.8963L171.391 11.9258L173.552 9.19709C174.741 7.69636 175.731 6.5388 175.753 6.62481C175.775 6.71083 175.517 8.13511 175.179 9.78977C174.841 11.4444 174.565 12.8985 174.565 13.0209C174.565 13.2188 174.758 13.2436 176.303 13.2436H178.041L179.342 6.83212C180.058 3.30578 180.643 0.325976 180.643 0.210324C180.643 0.0291097 180.422 0 179.044 0H177.445L174.372 3.80262C172.681 5.89406 171.28 7.60523 171.259 7.60523C171.238 7.60523 170.506 5.89406 169.633 3.80262L168.045 0H166.506C165.394 0 164.95 0.0456314 164.91 0.163906ZM183.615 6.44058C181.275 9.982 179.311 12.9614 179.252 13.0616C179.162 13.2134 179.48 13.2436 181.168 13.2436H183.192L183.986 11.9651L184.781 10.6867H187.676H190.571L190.836 11.9651L191.101 13.2436H193.046C194.545 13.2436 194.975 13.2061 194.926 13.0797C194.89 12.9896 194.14 10.0098 193.258 6.45789L191.656 0L189.763 0.000917864L187.87 0.00170469L183.615 6.44058ZM196.788 0.163906C196.757 0.25412 196.634 0.829364 196.513 1.44237C196.393 2.05538 196.264 2.66026 196.226 2.7864C196.164 2.9979 196.323 3.01587 198.261 3.01587C199.418 3.01587 200.362 3.06006 200.36 3.11421C200.357 3.16837 199.882 5.4696 199.304 8.22808L198.253 13.2436H200.176H202.098L202.22 12.6863C202.287 12.3797 202.761 10.08 203.274 7.5756L204.208 3.02216L206.295 2.98623L208.383 2.95031L208.687 1.5735C208.854 0.816251 208.995 0.152498 209 0.0983435C209.005 0.044189 206.272 0 202.926 0C198.18 0 196.832 0.0360593 196.788 0.163906ZM189.958 7.76914C189.961 7.82316 189.204 7.86748 188.275 7.86748C187.346 7.86748 186.587 7.8309 186.587 7.78618C186.587 7.74134 187.146 6.78806 187.829 5.66773L189.071 3.63071L189.512 5.65069C189.754 6.76184 189.955 7.71512 189.958 7.76914Z" fill="#393939"/>
</svg>
