<svg width="53" height="41" viewBox="0 0 53 41" fill="none" xmlns="http://www.w3.org/2000/svg">
<path d="M18.2796 17.9169C20.2986 18.8695 21.849 20.2985 22.9306 22.2038C24.0844 24.0357 24.6612 26.1975 24.6612 28.689C24.6612 32.353 23.5075 35.3208 21.2 37.5925C18.8925 39.8642 15.9361 41 12.3306 41C8.72517 41 5.76871 39.8642 3.46123 37.5925C1.15374 35.3208 0 32.353 0 28.689C0 27.0036 0.216326 25.3181 0.648979 23.6327C1.08163 21.9473 2.0551 19.4558 3.56939 16.1582L10.4918 0H23.3633L18.2796 17.9169ZM46.6184 17.9169C48.6374 18.8695 50.1878 20.2985 51.2694 22.2038C52.4231 24.0357 53 26.1975 53 28.689C53 32.353 51.8463 35.3208 49.5388 37.5925C47.2313 39.8642 44.2748 41 40.6694 41C37.0639 41 34.1075 39.8642 31.8 37.5925C29.4925 35.3208 28.3388 32.353 28.3388 28.689C28.3388 27.0036 28.5551 25.3181 28.9878 23.6327C29.4204 21.9473 30.3939 19.4558 31.9082 16.1582L38.8306 0H51.702L46.6184 17.9169Z" fill="#F1E2DA"/>
</svg>
