<svg width="39" height="45" viewBox="0 0 39 45" fill="none" xmlns="http://www.w3.org/2000/svg">
<path d="M38.2749 12.2095L38.2735 12.1745C38.2539 11.7423 38.2409 11.285 38.233 10.7762C38.1962 8.29501 36.2239 6.24265 33.7424 6.10395C28.5686 5.81522 24.5661 4.12815 21.1463 0.794868L21.1172 0.76706C20.0017 -0.255687 18.3191 -0.255687 17.2033 0.76706L17.1742 0.794868C13.7544 4.12815 9.75195 5.81522 4.57814 6.10429C2.09697 6.24265 0.124265 8.29501 0.0875303 10.7765C0.0799772 11.2819 0.0665878 11.7392 0.0470186 12.1745L0.0449588 12.2559C-0.0556336 17.5317 -0.180602 24.0976 2.01595 30.0573C3.22375 33.3346 5.05295 36.1835 7.4524 38.5252C10.1852 41.1921 13.7647 43.3094 18.0912 44.8179C18.2319 44.867 18.3782 44.9068 18.5272 44.9367C18.7373 44.9786 18.9488 44.9995 19.1603 44.9995C19.3717 44.9995 19.5836 44.9786 19.7933 44.9367C19.9423 44.9068 20.0896 44.8667 20.2311 44.8172C24.5524 43.306 28.1281 41.1877 30.8585 38.5211C33.2569 36.1787 35.0861 33.3291 36.2949 30.0511C38.4997 24.0736 38.3751 17.4953 38.2749 12.2095ZM33.8176 29.1375C31.5008 35.4189 26.7716 39.7327 19.3597 42.3247C19.3333 42.3337 19.3051 42.3416 19.2759 42.3474C19.1994 42.3625 19.1215 42.3625 19.0439 42.3471C19.015 42.3412 18.9869 42.3337 18.9608 42.3247C11.541 39.7375 6.80868 35.4261 4.49368 29.1444C2.46913 23.651 2.5838 17.6237 2.68508 12.3063L2.68577 12.2768C2.70636 11.8199 2.7201 11.3413 2.72765 10.8153C2.74413 9.7136 3.62165 8.80209 4.72542 8.74063C7.65324 8.57722 10.2254 8.01143 12.5888 7.011C14.9491 6.01194 17.0454 4.60365 18.9968 2.70578C19.0961 2.62201 19.2248 2.62167 19.3237 2.70578C21.2754 4.60365 23.3717 6.01194 25.7317 7.011C28.0951 8.01143 30.6673 8.57722 33.5954 8.74063C34.6992 8.80209 35.5767 9.7136 35.5929 10.8157C35.6007 11.3444 35.6145 11.8229 35.6351 12.2768C35.736 17.6003 35.8479 23.6324 33.8176 29.1375Z" fill="url(#paint0_linear)"/>
<path d="M19.1597 11.286C12.9758 11.286 7.94514 16.317 7.94514 22.5005C7.94514 28.6844 12.9758 33.7154 19.1597 33.7154C25.3432 33.7154 30.3742 28.6844 30.3742 22.5005C30.3742 16.317 25.3432 11.286 19.1597 11.286ZM19.1597 31.0746C14.4318 31.0746 10.5856 27.2284 10.5856 22.5005C10.5856 17.7727 14.4318 13.9265 19.1597 13.9265C23.8872 13.9265 27.7334 17.7727 27.7334 22.5005C27.7334 27.2284 23.8872 31.0746 19.1597 31.0746Z" fill="url(#paint1_linear)"/>
<path d="M22.3827 19.0189L17.1739 24.2278L15.7601 22.814C15.2444 22.2983 14.4084 22.2983 13.8927 22.814C13.3774 23.3297 13.3774 24.1656 13.8927 24.681L16.2404 27.0286C16.4982 27.2864 16.836 27.4152 17.1739 27.4152C17.5117 27.4152 17.8495 27.2864 18.1073 27.0286L24.25 20.8859C24.7653 20.3702 24.7653 19.5343 24.25 19.0189C23.7343 18.5029 22.8984 18.5029 22.3827 19.0189Z" fill="url(#paint2_linear)"/>
<defs>
<linearGradient id="paint0_linear" x1="19.1598" y1="44.9995" x2="19.1598" y2="0" gradientUnits="userSpaceOnUse">
<stop stop-color="#5558FF"/>
<stop offset="1" stop-color="#00C0FF"/>
</linearGradient>
<linearGradient id="paint1_linear" x1="19.1597" y1="33.7154" x2="19.1597" y2="11.286" gradientUnits="userSpaceOnUse">
<stop stop-color="#5558FF"/>
<stop offset="1" stop-color="#00C0FF"/>
</linearGradient>
<linearGradient id="paint2_linear" x1="19.0714" y1="27.4152" x2="19.0714" y2="18.6319" gradientUnits="userSpaceOnUse">
<stop stop-color="#5558FF"/>
<stop offset="1" stop-color="#00C0FF"/>
</linearGradient>
</defs>
</svg>
